# ProBuilder 4.5.2
# https://unity3d.com/unity/features/worldbuilding/probuilder
# 04/12/2021 11:28:02

mtllib ./bathroomDoor.mtl
o bathroomDoor

g Cube (51)
v 13.625 1 -4.75
v 13.5 1 -4.75
v 13.625 3 -4.75
v 13.5 3 -4.75
v 13.5 1 -6.25
v 13.5 3 -6.25
v 13.625 1 -6.25
v 13.625 3 -6.25

vt -1.375 0
vt -1.5 0
vt -1.375 2
vt -1.5 2
vt 0.5 0
vt -1 0
vt 0.5 2
vt -1 2
vt 1.5 0
vt 1.375 0
vt 1.5 2
vt 1.375 2
vt 1 0
vt -0.5 0
vt 1 2
vt -0.5 2
vt 1.375 0.5
vt 1.5 0.5
vt 1.375 -1
vt 1.5 -1
vt -1.375 -1
vt -1.5 -1
vt -1.375 0.5
vt -1.5 0.5

vn 0 0 1
vn -1 0 0
vn 0 0 -1
vn 1 0 0
vn 0 1 0
vn 0 -1 0

usemtl ProBuilderDefault
f 3/3/1 4/4/1 2/2/1 1/1/1
f 4/7/2 6/8/2 5/6/2 2/5/2
f 6/11/3 8/12/3 7/10/3 5/9/3
f 8/15/4 3/16/4 1/14/4 7/13/4
f 8/19/5 6/20/5 4/18/5 3/17/5
f 1/23/6 2/24/6 5/22/6 7/21/6

