# ProBuilder 4.5.2
# https://unity3d.com/unity/features/worldbuilding/probuilder
# 03/12/2021 15:46:52

mtllib ./door.mtl
o door

g Cube (3)
v 9 1 -0.75
v 7.5 1 -0.75
v 9 3.25 -0.75
v 7.5 3.25 -0.75
v 7.5 1 -1
v 7.5 3.25 -1
v 9 1 -1
v 9 3.25 -1

vt 0.5 0
vt -1 0
vt 0.5 2.25
vt -1 2.25
vt -0.75 0
vt -0.75 2.25
vt 1 0
vt -0.5 0
vt 1 2.25
vt -0.5 2.25
vt 0.75 0
vt 0.75 2.25
vt -0.5 -0.75
vt 1 -0.75
vt -0.5 -1
vt 1 -1
vt 0.5 -1
vt -1 -1
vt 0.5 -0.75
vt -1 -0.75

vn 0 0 1
vn -1 0 0
vn 0 0 -1
vn 1 0 0
vn 0 1 0
vn 0 -1 0

usemtl ProBuilderDefault
f 3/3/1 4/4/1 2/2/1 1/1/1
f 4/6/2 6/4/2 5/2/2 2/5/2
f 6/9/3 8/10/3 7/8/3 5/7/3
f 8/9/4 3/12/4 1/11/4 7/7/4
f 8/15/5 6/16/5 4/14/5 3/13/5
f 1/19/6 2/20/6 5/18/6 7/17/6

