# ProBuilder 4.5.2
# https://unity3d.com/unity/features/worldbuilding/probuilder
# 05/12/2021 16:58:37

mtllib ./sink.mtl
o sink

g Cube (56)
v 15 1.25 -7.6875
v 14.25 1.25 -7.6875
v 15 2 -7.6875
v 14.25 2 -7.6875
v 14.25 1.25 -8.4375
v 14.25 2 -8.4375
v 15 1.25 -8.4375
v 15 2 -8.4375

vt 0 0
vt -0.75 0
vt 0 0.75
vt -0.75 0.75
vt 0.75 0
vt 0.75 0.75
vt 0 -0.75
vt 0.75 -0.75
vt -0.75 -0.75

vn 0 0 1
vn -1 0 0
vn 0 0 -1
vn 1 0 0
vn 0 1 0
vn 0 -1 0

usemtl ProBuilderDefault
f 3/3/1 4/4/1 2/2/1 1/1/1
f 4/3/2 6/4/2 5/2/2 2/1/2
f 6/6/3 8/3/3 7/1/3 5/5/3
f 8/6/4 3/3/4 1/1/4 7/5/4
f 8/7/5 6/8/5 4/5/5 3/1/5
f 1/1/6 2/2/6 5/9/6 7/7/6

