# ProBuilder 4.5.2
# https://unity3d.com/unity/features/worldbuilding/probuilder
# 06/12/2021 15:27:53

mtllib ./toilet.mtl
o toilet

g Cube (6)
v 14.8125 1.0885 -4.9163
v 14.375 1.0885 -4.9163
v 14.8125 1.526 -4.9163
v 14.375 1.526 -4.9163
v 14.375 1.0885 -5.3538
v 14.375 1.526 -5.3538
v 14.8125 1.0885 -5.3538
v 14.8125 1.526 -5.3538

vt 0 0
vt -1 0
vt 0 1
vt -1 1
vt 1 0
vt 1 1
vt 0 -1
vt 1 -1
vt -1 -1

vn 0 0 0.4375
vn -0.4375 0 0
vn 0 0 -0.4375
vn 0.4375 0 0
vn 0 0.4375 0
vn 0 -0.4375 0

usemtl ProBuilderDefault
f 3/3/1 4/4/1 2/2/1 1/1/1
f 4/3/2 6/4/2 5/2/2 2/1/2
f 6/6/3 8/3/3 7/1/3 5/5/3
f 8/6/4 3/3/4 1/1/4 7/5/4
f 8/7/5 6/8/5 4/5/5 3/1/5
f 1/1/6 2/2/6 5/9/6 7/7/6

